<mxfile host="app.diagrams.net" modified="2024-06-14T13:48:40.614Z" agent="Mozilla/5.0 (Windows NT 10.0; Win64; x64) AppleWebKit/537.36 (KHTML, like Gecko) Chrome/125.0.0.0 Safari/537.36" version="24.5.4" etag="O28-CYI67Z0PfV4PSnuT" type="github">
  <diagram name="Page-1" id="2iz1DbOmFGQ0sl4jcnUp">
    <mxGraphModel>
      <root>
        <mxCell id="0" />
        <mxCell id="1" parent="0" />
      </root>
    </mxGraphModel>
  </diagram>
</mxfile>
